STARTFONT 2.1
FONT -URW-ITC Avant Garde-Demi-O-Normal-Sans-12-120-72-72-P-68-ISO8859-1
SIZE 12 72 72
FONTBOUNDINGBOX 19 17 -3 -4

STARTPROPERTIES 22
FONTNAME_REGISTRY "-"
FOUNDRY "URW"
FAMILY_NAME "ITC Avant Garde"
WEIGHT_NAME "Demi"
SLANT "O"
SETWIDTH_NAME "Normal"
ADD_STYLE_NAME "Sans"
PIXEL_SIZE 12
POINT_SIZE 120
RESOLUTION_X 72
RESOLUTION_Y 72
SPACING "P"
CHARSET_REGISTRY "ISO8859"
CHARSET_ENCODING "1"
FULL_NAME "AvantGarde-DemiOblique"
AVERAGE_WIDTH 68
WEIGHT 10
X_HEIGHT 6
QUAD_WIDTH 8
DEFAULT_CHAR 32
FONT_DESCENT 4
FONT_ASCENT 13
ENDPROPERTIES

CHARS 190

STARTCHAR space
ENCODING 32
SWIDTH 280 0
DWIDTH 3 0
BBX 1 1 0 0
BITMAP
00
ENDCHAR

STARTCHAR exclam
ENCODING 33
SWIDTH 280 0
DWIDTH 3 0
BBX 3 9 1 0
BITMAP
20
60
60
60
40
40
C0
00
C0
ENDCHAR

STARTCHAR quotedbl
ENCODING 34
SWIDTH 360 0
DWIDTH 4 0
BBX 3 3 2 6
BITMAP
A0
A0
A0
ENDCHAR

STARTCHAR numbersign
ENCODING 35
SWIDTH 560 0
DWIDTH 7 0
BBX 7 9 1 0
BITMAP
16
34
2C
7E
28
FC
50
50
F0
ENDCHAR

STARTCHAR dollar
ENCODING 36
SWIDTH 560 0
DWIDTH 7 0
BBX 6 12 1 -1
BITMAP
18
18
3C
6C
60
70
38
08
D8
F0
60
60
ENDCHAR

STARTCHAR percent
ENCODING 37
SWIDTH 860 0
DWIDTH 10 0
BBX 7 9 2 0
BITMAP
EC
A8
E8
18
10
30
2E
4A
CE
ENDCHAR

STARTCHAR ampersand
ENCODING 38
SWIDTH 680 0
DWIDTH 8 0
BBX 9 9 1 0
BITMAP
1C00
3400
2400
2C00
7000
D980
8B00
CC00
7600
ENDCHAR

STARTCHAR quoteright
ENCODING 39
SWIDTH 280 0
DWIDTH 3 0
BBX 2 4 2 5
BITMAP
40
C0
40
80
ENDCHAR

STARTCHAR parenleft
ENCODING 40
SWIDTH 380 0
DWIDTH 5 0
BBX 4 11 1 -2
BITMAP
10
30
60
40
C0
C0
C0
C0
C0
60
20
ENDCHAR

STARTCHAR parenright
ENCODING 41
SWIDTH 380 0
DWIDTH 5 0
BBX 4 11 0 -2
BITMAP
20
30
30
10
10
10
30
30
60
C0
80
ENDCHAR

STARTCHAR asterisk
ENCODING 42
SWIDTH 440 0
DWIDTH 5 0
BBX 4 4 2 5
BITMAP
60
E0
F0
A0
ENDCHAR

STARTCHAR plus
ENCODING 43
SWIDTH 600 0
DWIDTH 7 0
BBX 6 5 1 1
BITMAP
10
10
FC
30
20
ENDCHAR

STARTCHAR comma
ENCODING 44
SWIDTH 280 0
DWIDTH 3 0
BBX 2 3 1 -2
BITMAP
C0
40
80
ENDCHAR

STARTCHAR minus
ENCODING 45
SWIDTH 600 0
DWIDTH 7 0
BBX 6 1 1 4
BITMAP
FC
ENDCHAR

STARTCHAR period
ENCODING 46
SWIDTH 280 0
DWIDTH 3 0
BBX 2 1 1 0
BITMAP
C0
ENDCHAR

STARTCHAR slash
ENCODING 47
SWIDTH 460 0
DWIDTH 6 0
BBX 7 11 0 -2
BITMAP
06
04
0C
08
18
10
30
20
60
40
C0
ENDCHAR

STARTCHAR zero
ENCODING 48
SWIDTH 560 0
DWIDTH 7 0
BBX 7 9 1 0
BITMAP
3C
66
46
44
C4
C4
CC
C8
70
ENDCHAR

STARTCHAR one
ENCODING 49
SWIDTH 560 0
DWIDTH 7 0
BBX 3 9 3 0
BITMAP
E0
60
60
60
40
40
C0
C0
C0
ENDCHAR

STARTCHAR two
ENCODING 50
SWIDTH 560 0
DWIDTH 7 0
BBX 7 9 1 0
BITMAP
3C
66
66
0E
1C
38
60
FC
FC
ENDCHAR

STARTCHAR three
ENCODING 51
SWIDTH 560 0
DWIDTH 7 0
BBX 6 9 1 0
BITMAP
38
6C
0C
0C
18
0C
8C
DC
78
ENDCHAR

STARTCHAR four
ENCODING 52
SWIDTH 560 0
DWIDTH 7 0
BBX 7 9 0 0
BITMAP
06
0E
1C
34
64
CC
FE
08
08
ENDCHAR

STARTCHAR five
ENCODING 53
SWIDTH 560 0
DWIDTH 7 0
BBX 6 9 1 0
BITMAP
3C
38
60
F8
DC
0C
04
CC
78
ENDCHAR

STARTCHAR six
ENCODING 54
SWIDTH 560 0
DWIDTH 7 0
BBX 7 9 1 0
BITMAP
0E
18
30
7C
CC
CC
CC
C8
70
ENDCHAR

STARTCHAR seven
ENCODING 55
SWIDTH 560 0
DWIDTH 7 0
BBX 7 9 1 0
BITMAP
7E
0E
0C
18
18
30
70
60
C0
ENDCHAR

STARTCHAR eight
ENCODING 56
SWIDTH 560 0
DWIDTH 7 0
BBX 6 9 1 0
BITMAP
1C
24
64
6C
78
CC
CC
C8
70
ENDCHAR

STARTCHAR nine
ENCODING 57
SWIDTH 560 0
DWIDTH 7 0
BBX 6 9 1 0
BITMAP
38
4C
C4
CC
CC
78
18
30
E0
ENDCHAR

STARTCHAR colon
ENCODING 58
SWIDTH 280 0
DWIDTH 3 0
BBX 3 6 1 0
BITMAP
60
00
00
00
00
C0
ENDCHAR

STARTCHAR semicolon
ENCODING 59
SWIDTH 280 0
DWIDTH 3 0
BBX 3 8 1 -2
BITMAP
60
00
00
00
40
C0
40
80
ENDCHAR

STARTCHAR less
ENCODING 60
SWIDTH 600 0
DWIDTH 7 0
BBX 7 6 1 0
BITMAP
06
3E
F0
E0
7C
0C
ENDCHAR

STARTCHAR equal
ENCODING 61
SWIDTH 600 0
DWIDTH 7 0
BBX 7 3 1 3
BITMAP
FE
00
FC
ENDCHAR

STARTCHAR greater
ENCODING 62
SWIDTH 600 0
DWIDTH 7 0
BBX 7 6 1 0
BITMAP
60
78
0E
1E
F8
C0
ENDCHAR

STARTCHAR question
ENCODING 63
SWIDTH 560 0
DWIDTH 7 0
BBX 5 9 2 0
BITMAP
70
D8
08
18
30
60
60
00
60
ENDCHAR

STARTCHAR at
ENCODING 64
SWIDTH 740 0
DWIDTH 9 0
BBX 9 9 1 0
BITMAP
1F00
2180
4080
9E80
B280
A480
BF00
4000
3E00
ENDCHAR

STARTCHAR A
ENCODING 65
SWIDTH 740 0
DWIDTH 9 0
BBX 9 9 0 0
BITMAP
0600
0E00
0A00
1B00
1B00
3100
7F00
6180
C180
ENDCHAR

STARTCHAR B
ENCODING 66
SWIDTH 580 0
DWIDTH 7 0
BBX 6 9 1 0
BITMAP
3C
64
64
6C
78
4C
C4
CC
F8
ENDCHAR

STARTCHAR C
ENCODING 67
SWIDTH 780 0
DWIDTH 9 0
BBX 9 9 1 0
BITMAP
1F00
3180
6000
C000
C000
C000
C000
6300
3C00
ENDCHAR

STARTCHAR D
ENCODING 68
SWIDTH 700 0
DWIDTH 8 0
BBX 8 9 1 0
BITMAP
7C
66
63
63
63
C3
C2
CC
F8
ENDCHAR

STARTCHAR E
ENCODING 69
SWIDTH 520 0
DWIDTH 6 0
BBX 6 9 1 0
BITMAP
3C
60
60
60
7C
40
C0
C0
F8
ENDCHAR

STARTCHAR F
ENCODING 70
SWIDTH 480 0
DWIDTH 6 0
BBX 6 9 1 0
BITMAP
3C
60
60
60
78
40
C0
C0
C0
ENDCHAR

STARTCHAR G
ENCODING 71
SWIDTH 840 0
DWIDTH 10 0
BBX 10 9 1 0
BITMAP
1F00
3180
6000
C000
C000
DFC0
C180
6300
3E00
ENDCHAR

STARTCHAR H
ENCODING 72
SWIDTH 680 0
DWIDTH 8 0
BBX 8 9 1 0
BITMAP
23
63
63
62
7E
46
C6
C6
C6
ENDCHAR

STARTCHAR I
ENCODING 73
SWIDTH 280 0
DWIDTH 3 0
BBX 3 9 1 0
BITMAP
20
60
60
60
40
40
C0
C0
C0
ENDCHAR

STARTCHAR J
ENCODING 74
SWIDTH 480 0
DWIDTH 6 0
BBX 6 9 0 0
BITMAP
0C
0C
0C
08
08
08
18
18
F0
ENDCHAR

STARTCHAR K
ENCODING 75
SWIDTH 620 0
DWIDTH 7 0
BBX 8 9 1 0
BITMAP
23
66
6C
78
70
78
D8
CC
C6
ENDCHAR

STARTCHAR L
ENCODING 76
SWIDTH 440 0
DWIDTH 5 0
BBX 5 9 1 0
BITMAP
20
60
60
60
60
40
C0
C0
F8
ENDCHAR

STARTCHAR M
ENCODING 77
SWIDTH 900 0
DWIDTH 11 0
BBX 11 9 1 0
BITMAP
20E0
60E0
71C0
7140
5B40
5EC0
CEC0
CCC0
CC80
ENDCHAR

STARTCHAR N
ENCODING 78
SWIDTH 740 0
DWIDTH 9 0
BBX 9 9 1 0
BITMAP
2180
6180
7100
7900
5B00
4B00
CF00
C600
C600
ENDCHAR

STARTCHAR O
ENCODING 79
SWIDTH 840 0
DWIDTH 10 0
BBX 9 9 1 0
BITMAP
1F00
3180
6080
C080
C080
C180
C100
6300
3C00
ENDCHAR

STARTCHAR P
ENCODING 80
SWIDTH 560 0
DWIDTH 7 0
BBX 7 9 1 0
BITMAP
3C
66
66
66
64
78
C0
C0
C0
ENDCHAR

STARTCHAR Q
ENCODING 81
SWIDTH 840 0
DWIDTH 10 0
BBX 10 9 1 0
BITMAP
1F00
3180
6080
C0C0
C0C0
F880
CD80
6700
3D80
ENDCHAR

STARTCHAR R
ENCODING 82
SWIDTH 580 0
DWIDTH 7 0
BBX 7 9 1 0
BITMAP
3C
66
66
66
64
78
F8
D8
CC
ENDCHAR

STARTCHAR S
ENCODING 83
SWIDTH 520 0
DWIDTH 6 0
BBX 6 9 1 0
BITMAP
1C
24
60
70
3C
0C
0C
C8
70
ENDCHAR

STARTCHAR T
ENCODING 84
SWIDTH 420 0
DWIDTH 5 0
BBX 5 9 1 0
BITMAP
F8
20
60
60
60
60
40
40
C0
ENDCHAR

STARTCHAR U
ENCODING 85
SWIDTH 640 0
DWIDTH 8 0
BBX 7 9 1 0
BITMAP
66
66
46
46
C4
C4
CC
C8
70
ENDCHAR

STARTCHAR V
ENCODING 86
SWIDTH 700 0
DWIDTH 8 0
BBX 9 9 2 0
BITMAP
C380
C700
4600
4E00
4C00
7800
7800
3000
3000
ENDCHAR

STARTCHAR W
ENCODING 87
SWIDTH 900 0
DWIDTH 11 0
BBX 11 9 2 0
BITMAP
CC60
CCC0
DCC0
DD80
D580
7700
7700
6600
6600
ENDCHAR

STARTCHAR X
ENCODING 88
SWIDTH 680 0
DWIDTH 8 0
BBX 10 9 0 0
BITMAP
71C0
3B80
1F00
1E00
0C00
1E00
3E00
7700
E300
ENDCHAR

STARTCHAR Y
ENCODING 89
SWIDTH 620 0
DWIDTH 7 0
BBX 8 9 2 0
BITMAP
C7
CE
6C
78
78
30
20
60
60
ENDCHAR

STARTCHAR Z
ENCODING 90
SWIDTH 500 0
DWIDTH 6 0
BBX 7 9 0 0
BITMAP
3E
0E
0C
18
38
30
60
E0
FC
ENDCHAR

STARTCHAR bracketleft
ENCODING 91
SWIDTH 320 0
DWIDTH 4 0
BBX 4 11 1 -2
BITMAP
10
30
60
40
40
C0
C0
C0
C0
C0
40
ENDCHAR

STARTCHAR backslash
ENCODING 92
SWIDTH 640 0
DWIDTH 8 0
BBX 4 9 3 0
BITMAP
80
80
C0
40
40
60
20
20
30
ENDCHAR

STARTCHAR bracketright
ENCODING 93
SWIDTH 320 0
DWIDTH 4 0
BBX 4 11 0 -2
BITMAP
20
30
30
30
30
30
20
20
60
C0
80
ENDCHAR

STARTCHAR asciicircum
ENCODING 94
SWIDTH 600 0
DWIDTH 7 0
BBX 6 5 2 4
BITMAP
38
38
78
EC
CC
ENDCHAR

STARTCHAR underscore
ENCODING 95
SWIDTH 500 0
DWIDTH 6 0
BBX 6 1 0 -2
BITMAP
FC
ENDCHAR

STARTCHAR quoteleft
ENCODING 96
SWIDTH 280 0
DWIDTH 3 0
BBX 2 3 2 6
BITMAP
40
80
C0
ENDCHAR

STARTCHAR a
ENCODING 97
SWIDTH 660 0
DWIDTH 8 0
BBX 8 6 1 0
BITMAP
3F
66
C2
C6
C6
7E
ENDCHAR

STARTCHAR b
ENCODING 98
SWIDTH 660 0
DWIDTH 8 0
BBX 8 9 1 0
BITMAP
20
60
60
7E
63
43
C2
C6
FC
ENDCHAR

STARTCHAR c
ENCODING 99
SWIDTH 640 0
DWIDTH 8 0
BBX 7 6 1 0
BITMAP
3C
62
C0
C0
C2
7C
ENDCHAR

STARTCHAR d
ENCODING 100
SWIDTH 660 0
DWIDTH 8 0
BBX 8 9 1 0
BITMAP
03
03
03
3E
66
C2
C6
C6
7E
ENDCHAR

STARTCHAR e
ENCODING 101
SWIDTH 640 0
DWIDTH 8 0
BBX 7 6 1 0
BITMAP
3C
46
FE
C0
CE
78
ENDCHAR

STARTCHAR f
ENCODING 102
SWIDTH 280 0
DWIDTH 3 0
BBX 4 9 1 0
BITMAP
30
20
60
F0
40
40
C0
C0
C0
ENDCHAR

STARTCHAR g
ENCODING 103
SWIDTH 660 0
DWIDTH 8 0
BBX 8 8 0 -2
BITMAP
1D
63
43
42
66
7E
04
F8
ENDCHAR

STARTCHAR h
ENCODING 104
SWIDTH 600 0
DWIDTH 7 0
BBX 7 9 1 0
BITMAP
20
60
60
7C
66
46
C4
C4
CC
ENDCHAR

STARTCHAR i
ENCODING 105
SWIDTH 240 0
DWIDTH 3 0
BBX 3 9 1 0
BITMAP
60
00
00
60
60
40
40
C0
C0
ENDCHAR

STARTCHAR j
ENCODING 106
SWIDTH 260 0
DWIDTH 3 0
BBX 4 11 0 -2
BITMAP
30
00
00
30
30
20
20
60
60
C0
C0
ENDCHAR

STARTCHAR k
ENCODING 107
SWIDTH 580 0
DWIDTH 7 0
BBX 7 9 1 0
BITMAP
20
60
60
66
7C
70
F0
D8
CC
ENDCHAR

STARTCHAR l
ENCODING 108
SWIDTH 240 0
DWIDTH 3 0
BBX 3 9 1 0
BITMAP
20
60
60
60
40
40
C0
C0
C0
ENDCHAR

STARTCHAR m
ENCODING 109
SWIDTH 940 0
DWIDTH 11 0
BBX 11 6 1 0
BITMAP
7DC0
6660
4460
4460
CC40
CCC0
ENDCHAR

STARTCHAR n
ENCODING 110
SWIDTH 600 0
DWIDTH 7 0
BBX 7 6 1 0
BITMAP
7C
66
46
44
C4
CC
ENDCHAR

STARTCHAR o
ENCODING 111
SWIDTH 640 0
DWIDTH 8 0
BBX 7 6 1 0
BITMAP
3C
66
C2
C6
C4
78
ENDCHAR

STARTCHAR p
ENCODING 112
SWIDTH 660 0
DWIDTH 8 0
BBX 8 8 0 -2
BITMAP
3E
63
63
63
66
5C
C0
C0
ENDCHAR

STARTCHAR q
ENCODING 113
SWIDTH 660 0
DWIDTH 8 0
BBX 8 8 1 -2
BITMAP
3F
66
C2
C6
C6
7E
04
0C
ENDCHAR

STARTCHAR r
ENCODING 114
SWIDTH 320 0
DWIDTH 4 0
BBX 4 6 1 0
BITMAP
70
60
40
40
C0
C0
ENDCHAR

STARTCHAR s
ENCODING 115
SWIDTH 440 0
DWIDTH 5 0
BBX 5 6 1 0
BITMAP
38
40
70
38
18
F0
ENDCHAR

STARTCHAR t
ENCODING 116
SWIDTH 300 0
DWIDTH 4 0
BBX 4 9 1 0
BITMAP
20
60
60
F0
40
40
C0
C0
C0
ENDCHAR

STARTCHAR u
ENCODING 117
SWIDTH 600 0
DWIDTH 7 0
BBX 7 6 1 0
BITMAP
46
C4
C4
CC
CC
7C
ENDCHAR

STARTCHAR v
ENCODING 118
SWIDTH 560 0
DWIDTH 7 0
BBX 7 6 1 0
BITMAP
CE
CC
58
78
70
60
ENDCHAR

STARTCHAR w
ENCODING 119
SWIDTH 800 0
DWIDTH 10 0
BBX 10 6 1 0
BITMAP
D9C0
D980
FB00
7F00
6600
6600
ENDCHAR

STARTCHAR x
ENCODING 120
SWIDTH 560 0
DWIDTH 7 0
BBX 8 6 0 0
BITMAP
77
36
1C
38
6C
EE
ENDCHAR

STARTCHAR y
ENCODING 121
SWIDTH 580 0
DWIDTH 7 0
BBX 8 8 1 -2
BITMAP
C7
6E
6C
38
38
30
60
C0
ENDCHAR

STARTCHAR z
ENCODING 122
SWIDTH 460 0
DWIDTH 6 0
BBX 6 6 0 0
BITMAP
7C
1C
38
70
E0
F8
ENDCHAR

STARTCHAR braceleft
ENCODING 123
SWIDTH 340 0
DWIDTH 4 0
BBX 4 11 1 -2
BITMAP
30
20
20
60
40
80
40
40
40
C0
C0
ENDCHAR

STARTCHAR bar
ENCODING 124
SWIDTH 600 0
DWIDTH 7 0
BBX 3 9 3 0
BITMAP
20
60
60
40
40
40
C0
C0
C0
ENDCHAR

STARTCHAR braceright
ENCODING 125
SWIDTH 340 0
DWIDTH 4 0
BBX 4 11 0 -2
BITMAP
30
10
30
20
20
10
20
20
60
40
C0
ENDCHAR

STARTCHAR asciitilde
ENCODING 126
SWIDTH 600 0
DWIDTH 7 0
BBX 6 2 1 2
BITMAP
64
98
ENDCHAR

STARTCHAR exclamdown
ENCODING 161
SWIDTH 280 0
DWIDTH 3 0
BBX 3 8 0 -2
BITMAP
60
00
60
60
40
40
C0
C0
ENDCHAR

STARTCHAR cent
ENCODING 162
SWIDTH 560 0
DWIDTH 7 0
BBX 6 9 1 0
BITMAP
10
30
78
C4
C0
C4
F8
30
20
ENDCHAR

STARTCHAR sterling
ENCODING 163
SWIDTH 560 0
DWIDTH 7 0
BBX 7 9 0 0
BITMAP
1C
26
60
60
F8
30
36
66
FC
ENDCHAR

STARTCHAR currency
ENCODING 164
SWIDTH 560 0
DWIDTH 7 0
BBX 7 5 1 2
BITMAP
7E
44
C4
CC
FC
ENDCHAR

STARTCHAR yen
ENCODING 165
SWIDTH 560 0
DWIDTH 7 0
BBX 8 9 1 0
BITMAP
E3
67
66
6C
FE
38
FC
30
30
ENDCHAR

STARTCHAR brokenbar
ENCODING 166
SWIDTH 600 0
DWIDTH 7 0
BBX 3 9 3 0
BITMAP
20
60
40
00
00
40
C0
C0
C0
ENDCHAR

STARTCHAR section
ENCODING 167
SWIDTH 560 0
DWIDTH 7 0
BBX 6 11 1 -2
BITMAP
3C
60
70
38
4C
64
74
18
08
D8
70
ENDCHAR

STARTCHAR dieresis
ENCODING 168
SWIDTH 500 0
DWIDTH 6 0
BBX 5 2 2 7
BITMAP
D8
D8
ENDCHAR

STARTCHAR copyright
ENCODING 169
SWIDTH 740 0
DWIDTH 9 0
BBX 9 9 1 0
BITMAP
1E00
2100
5C80
B280
B080
B280
9D00
4200
3C00
ENDCHAR

STARTCHAR ordfeminine
ENCODING 170
SWIDTH 360 0
DWIDTH 4 0
BBX 5 6 1 3
BITMAP
38
50
50
70
00
F0
ENDCHAR

STARTCHAR guillemotleft
ENCODING 171
SWIDTH 460 0
DWIDTH 6 0
BBX 5 4 1 1
BITMAP
48
D0
90
D0
ENDCHAR

STARTCHAR logicalnot
ENCODING 172
SWIDTH 600 0
DWIDTH 7 0
BBX 7 3 1 2
BITMAP
FE
0E
0C
ENDCHAR

STARTCHAR hyphen
ENCODING 173
SWIDTH 420 0
DWIDTH 5 0
BBX 4 1 1 3
BITMAP
F0
ENDCHAR

STARTCHAR registered
ENCODING 174
SWIDTH 740 0
DWIDTH 9 0
BBX 9 9 1 0
BITMAP
1E00
2100
5C80
9680
9C80
B880
B500
4200
3C00
ENDCHAR

STARTCHAR macron
ENCODING 175
SWIDTH 420 0
DWIDTH 5 0
BBX 4 1 2 8
BITMAP
F0
ENDCHAR

STARTCHAR degree
ENCODING 176
SWIDTH 400 0
DWIDTH 7 0
BBX 4 4 3 5
BITMAP
60
90
90
60
ENDCHAR

STARTCHAR plusminus
ENCODING 177
SWIDTH 600 0
DWIDTH 7 0
BBX 7 7 0 0
BITMAP
08
08
7E
18
10
00
FE
ENDCHAR

STARTCHAR twosuperior
ENCODING 178
SWIDTH 336 0
DWIDTH 4 0
BBX 4 5 -2 4
BITMAP
70
50
30
40
E0
ENDCHAR

STARTCHAR threesuperior
ENCODING 179
SWIDTH 336 0
DWIDTH 4 0
BBX 4 5 -2 4
BITMAP
60
30
20
B0
E0
ENDCHAR

STARTCHAR acute
ENCODING 180
SWIDTH 420 0
DWIDTH 5 0
BBX 3 3 2 7
BITMAP
20
E0
C0
ENDCHAR

STARTCHAR mu
ENCODING 181
SWIDTH 576 0
DWIDTH 7 0
BBX 8 8 0 -2
BITMAP
23
66
66
66
66
7E
C0
C0
ENDCHAR

STARTCHAR paragraph
ENCODING 182
SWIDTH 600 0
DWIDTH 7 0
BBX 6 11 2 -2
BITMAP
7C
F4
F4
F4
6C
28
28
28
68
68
58
ENDCHAR

STARTCHAR periodcentered
ENCODING 183
SWIDTH 280 0
DWIDTH 4 0
BBX 2 2 2 3
BITMAP
C0
C0
ENDCHAR

STARTCHAR cedilla
ENCODING 184
SWIDTH 340 0
DWIDTH 4 0
BBX 2 4 1 -3
BITMAP
40
40
C0
C0
ENDCHAR

STARTCHAR onesuperior
ENCODING 185
SWIDTH 336 0
DWIDTH 4 0
BBX 2 5 -3 4
BITMAP
C0
40
80
80
80
ENDCHAR

STARTCHAR ordmasculine
ENCODING 186
SWIDTH 360 0
DWIDTH 4 0
BBX 4 6 1 3
BITMAP
70
50
50
60
00
F0
ENDCHAR

STARTCHAR guillemotright
ENCODING 187
SWIDTH 460 0
DWIDTH 6 0
BBX 5 4 1 1
BITMAP
50
58
D8
B0
ENDCHAR

STARTCHAR onequarter
ENCODING 188
SWIDTH 840 0
DWIDTH 10 0
BBX 8 9 4 0
BITMAP
C3
46
84
8C
99
13
35
2F
62
ENDCHAR

STARTCHAR onehalf
ENCODING 189
SWIDTH 840 0
DWIDTH 10 0
BBX 8 9 4 0
BITMAP
C3
46
84
8C
9F
11
32
2C
6E
ENDCHAR

STARTCHAR threequarters
ENCODING 190
SWIDTH 840 0
DWIDTH 10 0
BBX 10 9 6 0
BITMAP
60C0
3180
2100
B300
E640
04C0
0D40
1BC0
1080
ENDCHAR

STARTCHAR questiondown
ENCODING 191
SWIDTH 560 0
DWIDTH 7 0
BBX 5 8 1 -2
BITMAP
18
00
10
30
60
C0
C8
70
ENDCHAR

STARTCHAR Agrave
ENCODING 192
SWIDTH 740 0
DWIDTH 9 0
BBX 9 13 0 0
BITMAP
0200
0700
0300
0000
0600
0E00
0A00
1B00
1B00
3300
7F00
6180
C180
ENDCHAR

STARTCHAR Aacute
ENCODING 193
SWIDTH 740 0
DWIDTH 9 0
BBX 9 13 0 0
BITMAP
0100
0700
0600
0000
0600
0E00
0A00
1B00
1B00
3300
7F00
6180
C180
ENDCHAR

STARTCHAR Acircumflex
ENCODING 194
SWIDTH 740 0
DWIDTH 9 0
BBX 9 12 0 0
BITMAP
0300
0D80
0000
0600
0E00
0A00
1B00
1B00
3300
7F00
6180
C180
ENDCHAR

STARTCHAR Atilde
ENCODING 195
SWIDTH 740 0
DWIDTH 9 0
BBX 9 11 0 0
BITMAP
0F00
0000
0600
0E00
0A00
1B00
1B00
3300
7F00
6180
C180
ENDCHAR

STARTCHAR Adieresis
ENCODING 196
SWIDTH 740 0
DWIDTH 9 0
BBX 9 12 0 0
BITMAP
0D80
0D80
0000
0600
0E00
0A00
1B00
1B00
3300
7F00
6180
C180
ENDCHAR

STARTCHAR Aring
ENCODING 197
SWIDTH 740 0
DWIDTH 9 0
BBX 9 12 0 0
BITMAP
0700
0700
0000
0600
0E00
0A00
1B00
1B00
3300
7F00
6180
C180
ENDCHAR

STARTCHAR AE
ENCODING 198
SWIDTH 900 0
DWIDTH 11 0
BBX 12 9 0 0
BITMAP
01F0
0380
0700
0D00
1BE0
3F00
3300
6300
C3C0
ENDCHAR

STARTCHAR Ccedilla
ENCODING 199
SWIDTH 780 0
DWIDTH 9 0
BBX 9 13 1 -4
BITMAP
1F00
3180
6000
C000
C000
C000
C000
6300
3C00
1000
1800
0800
3000
ENDCHAR

STARTCHAR Egrave
ENCODING 200
SWIDTH 520 0
DWIDTH 6 0
BBX 6 13 1 0
BITMAP
08
1C
0C
00
3C
60
60
60
7C
40
C0
C0
F8
ENDCHAR

STARTCHAR Eacute
ENCODING 201
SWIDTH 520 0
DWIDTH 6 0
BBX 6 13 1 0
BITMAP
04
1C
18
00
3C
60
60
60
7C
40
C0
C0
F8
ENDCHAR

STARTCHAR Ecircumflex
ENCODING 202
SWIDTH 520 0
DWIDTH 6 0
BBX 7 12 1 0
BITMAP
0C
36
00
3C
60
60
60
7C
40
C0
C0
F8
ENDCHAR

STARTCHAR Edieresis
ENCODING 203
SWIDTH 520 0
DWIDTH 6 0
BBX 7 12 1 0
BITMAP
36
36
00
3C
60
60
60
7C
40
C0
C0
F8
ENDCHAR

STARTCHAR Igrave
ENCODING 204
SWIDTH 280 0
DWIDTH 3 0
BBX 4 13 1 0
BITMAP
20
70
30
00
20
60
60
60
40
40
C0
C0
C0
ENDCHAR

STARTCHAR Iacute
ENCODING 205
SWIDTH 280 0
DWIDTH 3 0
BBX 4 13 1 0
BITMAP
10
70
60
00
20
60
60
60
40
40
C0
C0
C0
ENDCHAR

STARTCHAR Icircumflex
ENCODING 206
SWIDTH 280 0
DWIDTH 3 0
BBX 5 12 1 0
BITMAP
30
D8
00
20
60
60
60
40
40
C0
C0
C0
ENDCHAR

STARTCHAR Idieresis
ENCODING 207
SWIDTH 280 0
DWIDTH 3 0
BBX 5 12 1 0
BITMAP
D8
D8
00
20
60
60
60
40
40
C0
C0
C0
ENDCHAR

STARTCHAR Eth
ENCODING 208
SWIDTH 742 0
DWIDTH 8 0
BBX 8 9 1 0
BITMAP
3E
23
63
63
FB
43
42
C6
F8
ENDCHAR

STARTCHAR Ntilde
ENCODING 209
SWIDTH 740 0
DWIDTH 9 0
BBX 9 11 1 0
BITMAP
0F00
0000
2180
6180
7100
7100
5B00
4B00
CF00
CE00
C600
ENDCHAR

STARTCHAR Ograve
ENCODING 210
SWIDTH 840 0
DWIDTH 10 0
BBX 9 13 1 0
BITMAP
0400
0E00
0600
0000
1F00
3180
6080
C080
C080
C180
C100
6300
3C00
ENDCHAR

STARTCHAR Oacute
ENCODING 211
SWIDTH 840 0
DWIDTH 10 0
BBX 9 13 1 0
BITMAP
0200
0E00
0C00
0000
1F00
3180
6080
C080
C080
C180
C100
6300
3C00
ENDCHAR

STARTCHAR Ocircumflex
ENCODING 212
SWIDTH 840 0
DWIDTH 10 0
BBX 9 12 1 0
BITMAP
0600
1B00
0000
1F00
3180
6080
C080
C080
C180
C100
6300
3C00
ENDCHAR

STARTCHAR Otilde
ENCODING 213
SWIDTH 840 0
DWIDTH 10 0
BBX 9 11 1 0
BITMAP
0F00
0000
1F00
3180
6080
C080
C080
C180
C100
6300
3C00
ENDCHAR

STARTCHAR Odieresis
ENCODING 214
SWIDTH 840 0
DWIDTH 10 0
BBX 9 12 1 0
BITMAP
1B00
1B00
0000
1F00
3180
6080
C080
C080
C180
C100
6300
3C00
ENDCHAR

STARTCHAR multiply
ENCODING 215
SWIDTH 600 0
DWIDTH 7 0
BBX 7 6 1 1
BITMAP
66
6C
38
78
D8
8C
ENDCHAR

STARTCHAR Oslash
ENCODING 216
SWIDTH 840 0
DWIDTH 10 0
BBX 10 11 1 -1
BITMAP
0080
1FC0
3380
6780
CE80
CC80
D980
7380
7F00
CC00
C000
ENDCHAR

STARTCHAR Ugrave
ENCODING 217
SWIDTH 640 0
DWIDTH 8 0
BBX 7 13 1 0
BITMAP
08
1C
0C
00
66
66
46
46
C4
C4
CC
C8
70
ENDCHAR

STARTCHAR Uacute
ENCODING 218
SWIDTH 640 0
DWIDTH 8 0
BBX 7 13 1 0
BITMAP
04
1C
18
00
66
66
46
46
C4
C4
CC
C8
70
ENDCHAR

STARTCHAR Ucircumflex
ENCODING 219
SWIDTH 640 0
DWIDTH 8 0
BBX 7 12 1 0
BITMAP
0C
36
00
66
66
46
46
C4
C4
CC
C8
70
ENDCHAR

STARTCHAR Udieresis
ENCODING 220
SWIDTH 640 0
DWIDTH 8 0
BBX 7 12 1 0
BITMAP
36
36
00
66
66
46
46
C4
C4
CC
C8
70
ENDCHAR

STARTCHAR Yacute
ENCODING 221
SWIDTH 620 0
DWIDTH 7 0
BBX 8 13 2 0
BITMAP
08
38
30
00
C7
CE
6C
78
78
30
20
60
60
ENDCHAR

STARTCHAR Thorn
ENCODING 222
SWIDTH 560 0
DWIDTH 7 0
BBX 7 9 1 0
BITMAP
20
60
7C
66
66
4C
F8
C0
C0
ENDCHAR

STARTCHAR germandbls
ENCODING 223
SWIDTH 600 0
DWIDTH 7 0
BBX 7 9 1 0
BITMAP
1C
24
64
6C
5C
46
C6
E4
B8
ENDCHAR

STARTCHAR agrave
ENCODING 224
SWIDTH 660 0
DWIDTH 8 0
BBX 8 10 1 0
BITMAP
08
1C
0C
00
3F
66
C2
C6
C6
7E
ENDCHAR

STARTCHAR aacute
ENCODING 225
SWIDTH 660 0
DWIDTH 8 0
BBX 8 10 1 0
BITMAP
04
1C
18
00
3F
66
C2
C6
C6
7E
ENDCHAR

STARTCHAR acircumflex
ENCODING 226
SWIDTH 660 0
DWIDTH 8 0
BBX 8 9 1 0
BITMAP
0C
36
00
3F
66
C2
C6
C6
7E
ENDCHAR

STARTCHAR atilde
ENCODING 227
SWIDTH 660 0
DWIDTH 8 0
BBX 8 8 1 0
BITMAP
1E
00
3F
66
C2
C6
C6
7E
ENDCHAR

STARTCHAR adieresis
ENCODING 228
SWIDTH 660 0
DWIDTH 8 0
BBX 8 9 1 0
BITMAP
36
36
00
3F
66
C2
C6
C6
7E
ENDCHAR

STARTCHAR aring
ENCODING 229
SWIDTH 660 0
DWIDTH 8 0
BBX 8 9 1 0
BITMAP
1C
1C
00
3F
66
C2
C6
C6
7E
ENDCHAR

STARTCHAR ae
ENCODING 230
SWIDTH 1080 0
DWIDTH 13 0
BBX 12 6 1 0
BITMAP
3AF0
6710
C7F0
C600
C730
7BC0
ENDCHAR

STARTCHAR ccedilla
ENCODING 231
SWIDTH 640 0
DWIDTH 8 0
BBX 7 10 1 -4
BITMAP
3C
62
C0
C0
C2
7C
20
30
10
30
ENDCHAR

STARTCHAR egrave
ENCODING 232
SWIDTH 640 0
DWIDTH 8 0
BBX 7 10 1 0
BITMAP
08
1C
0C
00
3C
46
FE
C0
CE
78
ENDCHAR

STARTCHAR eacute
ENCODING 233
SWIDTH 640 0
DWIDTH 8 0
BBX 7 10 1 0
BITMAP
04
1C
18
00
3C
46
FE
C0
CE
78
ENDCHAR

STARTCHAR ecircumflex
ENCODING 234
SWIDTH 640 0
DWIDTH 8 0
BBX 7 9 1 0
BITMAP
0C
36
00
3C
46
FE
C0
CE
78
ENDCHAR

STARTCHAR edieresis
ENCODING 235
SWIDTH 640 0
DWIDTH 8 0
BBX 7 9 1 0
BITMAP
36
36
00
3C
46
FE
C0
CE
78
ENDCHAR

STARTCHAR igrave
ENCODING 236
SWIDTH 240 0
DWIDTH 3 0
BBX 4 10 1 0
BITMAP
20
70
30
00
60
60
40
40
C0
C0
ENDCHAR

STARTCHAR iacute
ENCODING 237
SWIDTH 240 0
DWIDTH 3 0
BBX 4 10 1 0
BITMAP
10
70
60
00
60
60
40
40
C0
C0
ENDCHAR

STARTCHAR icircumflex
ENCODING 238
SWIDTH 240 0
DWIDTH 3 0
BBX 5 9 1 0
BITMAP
30
D8
00
60
60
40
40
C0
C0
ENDCHAR

STARTCHAR idieresis
ENCODING 239
SWIDTH 240 0
DWIDTH 3 0
BBX 5 9 1 0
BITMAP
D8
D8
00
60
60
40
40
C0
C0
ENDCHAR

STARTCHAR eth
ENCODING 240
SWIDTH 640 0
DWIDTH 8 0
BBX 7 9 1 0
BITMAP
3C
18
0C
3E
66
C6
C6
C4
78
ENDCHAR

STARTCHAR ntilde
ENCODING 241
SWIDTH 600 0
DWIDTH 7 0
BBX 7 8 1 0
BITMAP
1E
00
7C
66
46
44
C4
CC
ENDCHAR

STARTCHAR ograve
ENCODING 242
SWIDTH 640 0
DWIDTH 8 0
BBX 7 10 1 0
BITMAP
08
1C
0C
00
3C
66
C2
C6
C4
78
ENDCHAR

STARTCHAR oacute
ENCODING 243
SWIDTH 640 0
DWIDTH 8 0
BBX 7 10 1 0
BITMAP
04
1C
18
00
3C
66
C2
C6
C4
78
ENDCHAR

STARTCHAR ocircumflex
ENCODING 244
SWIDTH 640 0
DWIDTH 8 0
BBX 7 9 1 0
BITMAP
0C
36
00
3C
66
C2
C6
C4
78
ENDCHAR

STARTCHAR otilde
ENCODING 245
SWIDTH 640 0
DWIDTH 8 0
BBX 7 8 1 0
BITMAP
1E
00
3C
66
C2
C6
C4
78
ENDCHAR

STARTCHAR odieresis
ENCODING 246
SWIDTH 640 0
DWIDTH 8 0
BBX 7 9 1 0
BITMAP
36
36
00
3C
66
C2
C6
C4
78
ENDCHAR

STARTCHAR divide
ENCODING 247
SWIDTH 600 0
DWIDTH 7 0
BBX 7 5 1 1
BITMAP
18
00
FE
00
30
ENDCHAR

STARTCHAR oslash
ENCODING 248
SWIDTH 660 0
DWIDTH 8 0
BBX 7 8 1 -1
BITMAP
02
3E
6E
DA
F6
E4
F8
C0
ENDCHAR

STARTCHAR ugrave
ENCODING 249
SWIDTH 600 0
DWIDTH 7 0
BBX 7 10 1 0
BITMAP
08
1C
0C
00
46
C4
C4
CC
CC
7C
ENDCHAR

STARTCHAR uacute
ENCODING 250
SWIDTH 600 0
DWIDTH 7 0
BBX 7 10 1 0
BITMAP
04
1C
18
00
46
C4
C4
CC
CC
7C
ENDCHAR

STARTCHAR ucircumflex
ENCODING 251
SWIDTH 600 0
DWIDTH 7 0
BBX 7 9 1 0
BITMAP
0C
36
00
46
C4
C4
CC
CC
7C
ENDCHAR

STARTCHAR udieresis
ENCODING 252
SWIDTH 600 0
DWIDTH 7 0
BBX 7 9 1 0
BITMAP
36
36
00
46
C4
C4
CC
CC
7C
ENDCHAR

STARTCHAR yacute
ENCODING 253
SWIDTH 580 0
DWIDTH 7 0
BBX 8 12 1 -2
BITMAP
04
1C
18
00
C7
6E
6C
38
38
30
60
C0
ENDCHAR

STARTCHAR thorn
ENCODING 254
SWIDTH 660 0
DWIDTH 8 0
BBX 8 11 0 -2
BITMAP
30
20
20
7E
63
63
63
66
DC
C0
C0
ENDCHAR

STARTCHAR ydieresis
ENCODING 255
SWIDTH 580 0
DWIDTH 7 0
BBX 8 11 1 -2
BITMAP
36
36
00
C7
6E
6C
38
38
30
60
C0
ENDCHAR
ENDFONT
